<svg xmlns="http://www.w3.org/2000/svg" version="1.1" xmlns:xlink="http://www.w3.org/1999/xlink" xmlns:svgjs="http://svgjs.com/svgjs" width="1440" height="560" preserveAspectRatio="none" viewBox="0 0 1440 560">
    <g mask="url(&quot;#SvgjsMask1002&quot;)" fill="none">
        <rect width="440" height="860" x="0" y="0" fill="url(#SvgjsLinearGradient1003)"></rect>
  <filter id="blurMe">
    <feGaussianBlur in="SourceGraphic" stdDeviation="20" />
  </filter>
        <path d="M929.561,357.282C985.25,357.568,1034.826,323.969,1062.271,275.511C1089.311,227.769,1090.392,169.391,1062.856,121.933C1035.42,74.647,984.196,44.859,929.561,46.783C877.854,48.604,837.326,85.896,811.591,130.781C786.017,175.385,775.444,228.557,799.194,274.158C824.71,323.149,874.324,356.998,929.561,357.282" fill="rgba(28, 83, 142, 0.4)" class="triangle-float1" filter="url(#blurMe)"></path>
        <path d="M263.416,131.413C294.87,130.758,318.625,106.189,333.974,78.726C348.876,52.063,355.245,20.234,340.509,-6.521C325.306,-34.124,294.929,-49.463,263.416,-49.38C232.051,-49.297,202.727,-33.267,187.026,-6.115C171.308,21.068,172.331,54.323,187.578,81.773C203.302,110.081,231.041,132.087,263.416,131.413" fill="rgba(28, 83, 142, 0.4)" class="triangle-float1"></path>
        <path d="M171.39,620.07C207.724,620.4,247.658,618.922,268.224,588.966C291.087,555.665,292.215,509.89,270.355,475.922C249.899,444.136,209.19,438.488,171.39,438.5C133.617,438.512,92.684,444.035,72.53,475.982C51.301,509.632,55.047,554.427,77.557,587.234C97.651,616.52,135.874,619.747,171.39,620.07" fill="rgba(28, 83, 142, 0.4)" class="triangle-float3"></path>
        <path d="M670.027,647.626C702.082,646.065,730.668,628.977,747.031,601.369C763.748,573.165,767.069,538.715,751.763,509.721C735.404,478.732,705.05,454.358,670.027,455.501C636.454,456.597,614.148,485.864,597.038,514.771C579.473,544.446,562.232,579.337,578.836,609.56C595.835,640.502,634.765,649.343,670.027,647.626" fill="rgba(28, 83, 142, 0.4)" class="triangle-float1"></path>
        <path d="M92.755,440.072C130.908,439.388,159.468,410.572,179.939,378.369C202.566,342.776,226.172,299.705,205.276,263.069C184.279,226.256,135.127,224.706,92.755,225.51C52.279,226.278,8.076,232.402,-12.608,267.202C-33.615,302.546,-21.411,346.485,-0.013,381.593C20.377,415.047,53.583,440.774,92.755,440.072" fill="rgba(28, 83, 142, 0.4)" class="triangle-float3"></path>
        <path d="M1255.189,536.599C1269.182,537.113,1284.795,536.037,1292.394,524.276C1300.471,511.775,1297.203,495.72,1290.023,482.684C1282.535,469.089,1270.71,456.651,1255.189,456.725C1239.761,456.799,1227.873,469.238,1220.928,483.015C1214.701,495.368,1214.98,510.053,1222.432,521.708C1229.357,532.538,1242.343,536.127,1255.189,536.599" fill="rgba(28, 83, 142, 0.4)" class="triangle-float1"></path>
    </g>
    <defs>
        <mask id="SvgjsMask1002">
            <rect width="1440" height="560" fill="#ffffff"></rect>
        </mask>
        <linearGradient x1="15.28%" y1="-39.29%" x2="84.72%" y2="139.29%" gradientUnits="userSpaceOnUse" id="SvgjsLinearGradient1003">
            <stop stop-color="#0e2a47" offset="0"></stop>
            <stop stop-color="#00459e" offset="1"></stop>
        </linearGradient>
    </defs>
</svg>